<?xml version="1.0" standalone="no"?>
<!DOCTYPE svg PUBLIC "-//W3C//DTD SVG 20010904//EN"
 "http://www.w3.org/TR/2001/REC-SVG-20010904/DTD/svg10.dtd">
<svg version="1.0" xmlns="http://www.w3.org/2000/svg"
 width="286.000000pt" height="65.000000pt" viewBox="0 0 286.000000 65.000000"
 preserveAspectRatio="xMidYMid meet">

<g transform="translate(0.000000,65.000000) scale(0.100000,-0.100000)"
fill="#000000" stroke="none">
<path d="M820 340 c0 -40 4 -70 10 -70 6 0 10 14 10 30 0 28 3 30 35 30 32 0
35 -2 35 -30 0 -16 5 -30 10 -30 6 0 10 30 10 70 0 40 -4 70 -10 70 -5 0 -10
-13 -10 -30 0 -28 -3 -30 -35 -30 -32 0 -35 2 -35 30 0 17 -4 30 -10 30 -6 0
-10 -30 -10 -70z"/>
<path d="M1000 340 l0 -70 40 0 c22 0 40 5 40 10 0 6 -13 10 -30 10 -23 0 -30
4 -30 20 0 16 7 20 30 20 17 0 30 5 30 10 0 6 -13 10 -30 10 -23 0 -30 4 -30
20 0 16 7 20 30 20 17 0 30 5 30 10 0 6 -18 10 -40 10 l-40 0 0 -70z"/>
<path d="M1149 383 c-2 -15 -1 -48 2 -73 l6 -45 1 58 c1 31 5 57 10 57 4 0 14
-23 22 -52 8 -28 20 -53 26 -55 6 -2 17 21 24 52 18 76 30 78 30 5 0 -38 4
-59 10 -55 6 3 10 35 10 71 0 62 -1 65 -22 62 -17 -2 -25 -13 -33 -45 -15 -60
-22 -61 -38 -7 -16 56 -43 71 -48 27z"/>
<path d="M1366 391 c-27 -30 -18 -91 17 -111 24 -13 30 -13 54 0 15 8 30 26
33 40 7 28 -5 71 -23 82 -22 14 -64 8 -81 -11z m85 -27 c16 -45 -33 -92 -66
-64 -15 13 -21 71 -8 84 15 15 66 1 74 -20z"/>
<path d="M1530 400 c0 -5 9 -10 20 -10 18 0 20 -7 20 -60 0 -33 4 -60 10 -60
6 0 10 27 10 60 0 53 2 60 20 60 11 0 20 5 20 10 0 6 -22 10 -50 10 -27 0 -50
-4 -50 -10z"/>
<path d="M1690 340 l0 -70 40 0 c22 0 40 5 40 10 0 6 -13 10 -30 10 -23 0 -30
4 -30 20 0 16 7 20 30 20 17 0 30 5 30 10 0 6 -13 10 -30 10 -23 0 -30 4 -30
20 0 16 7 20 30 20 17 0 30 5 30 10 0 6 -18 10 -40 10 l-40 0 0 -70z"/>
<path d="M1846 388 c-48 -68 32 -158 89 -102 19 20 12 32 -9 15 -39 -32 -97
24 -70 67 14 21 50 27 70 11 19 -16 30 -4 14 16 -19 23 -76 19 -94 -7z"/>
<path d="M2010 340 c0 -40 4 -70 10 -70 6 0 10 14 10 30 0 28 3 30 35 30 32 0
35 -2 35 -30 0 -16 5 -30 10 -30 6 0 10 30 10 70 0 40 -4 70 -10 70 -5 0 -10
-13 -10 -30 0 -28 -3 -30 -35 -30 -32 0 -35 2 -35 30 0 17 -4 30 -10 30 -6 0
-10 -30 -10 -70z"/>
</g>
</svg>
